<svg width="72" height="90" viewBox="0 0 72 90" xmlns="http://www.w3.org/2000/svg" xmlns:xlink="http://www.w3.org/1999/xlink"><title>Artboard</title><defs><path d="M64.406 26h6.612v25H64v-.589a27.195 27.195 0 0 0 3.08-12.61A27.2 27.2 0 0 0 64.406 26z" id="b"/><filter x="-50%" y="-50%" width="200%" height="200%" filterUnits="objectBoundingBox" id="a"><feOffset dy="2" in="SourceAlpha" result="shadowOffsetOuter1"/><feGaussianBlur stdDeviation="2" in="shadowOffsetOuter1" result="shadowBlurOuter1"/><feColorMatrix values="0 0 0 0 0.278431373 0 0 0 0 0.329411765 0 0 0 0 0.00392156863 0 0 0 1 0" in="shadowBlurOuter1"/></filter><text id="d" font-family="FuturaLT-Bold, Futura LT Book" font-size="4.9" font-weight="bold" fill="#FFF"><tspan x="12.5" y="84.45">&amp; HAVE FUN</tspan></text><filter x="-50%" y="-50%" width="200%" height="200%" filterUnits="objectBoundingBox" id="c"><feOffset dy="1" in="SourceAlpha" result="shadowOffsetOuter1"/><feGaussianBlur stdDeviation="1" in="shadowOffsetOuter1" result="shadowBlurOuter1"/><feColorMatrix values="0 0 0 0 0 0 0 0 0 0 0 0 0 0 0 0 0 0 0.5 0" in="shadowBlurOuter1"/></filter><text id="f" font-family="FuturaLT-Bold, Futura LT Book" font-size="8.4" font-weight="bold" fill="#FFF"><tspan x="12.15" y="78.3">BET ONLINE</tspan></text><filter x="-50%" y="-50%" width="200%" height="200%" filterUnits="objectBoundingBox" id="e"><feOffset dy="1" in="SourceAlpha" result="shadowOffsetOuter1"/><feGaussianBlur stdDeviation="1" in="shadowOffsetOuter1" result="shadowBlurOuter1"/><feColorMatrix values="0 0 0 0 0 0 0 0 0 0 0 0 0 0 0 0 0 0 0.5 0" in="shadowBlurOuter1"/></filter><path d="M38.091 65.404c-15.079 0-27.302-12.226-27.302-27.307 0-15.082 12.223-27.308 27.302-27.308 15.08 0 27.303 12.226 27.303 27.308 0 15.081-12.223 27.307-27.303 27.307m0-55.954C22.273 9.45 9.45 22.276 9.45 38.097c0 15.82 12.823 28.646 28.641 28.646 15.818 0 28.642-12.825 28.642-28.646 0-15.821-12.824-28.647-28.642-28.647" id="h"/><filter x="-50%" y="-50%" width="200%" height="200%" filterUnits="objectBoundingBox" id="g"><feOffset dx="1" dy="1" in="SourceAlpha" result="shadowOffsetOuter1"/><feGaussianBlur stdDeviation="1" in="shadowOffsetOuter1" result="shadowBlurOuter1"/><feColorMatrix values="0 0 0 0 0 0 0 0 0 0 0 0 0 0 0 0 0 0 0.489526721 0" in="shadowBlurOuter1"/></filter><radialGradient cx="-22.411%" cy="-191.956%" fx="-22.411%" fy="-191.956%" r="202.56%" id="k"><stop offset="0%"/><stop stop-color="#FFF" offset="100%"/></radialGradient><path d="M5.295 49.296l-.11-.255a7.512 7.512 0 0 0-.185-.4 1.227 1.227 0 0 0-.232-.325.745.745 0 0 0-.328-.189c-.128-.036-.288-.028-.479.024-.198.049-.338.116-.42.203a.466.466 0 0 0-.132.3.935.935 0 0 0 .064.37c.048.134.104.274.166.418l.11.254 1.546-.4zM3.097 51.54L2.1 49.225a3.166 3.166 0 0 1-.25-.889 1.636 1.636 0 0 1 .08-.761 1.35 1.35 0 0 1 .448-.595c.214-.168.499-.299.855-.391.736-.189 1.348-.149 1.835.12.488.27.874.735 1.16 1.399l.368.856 2.062-.52.65 1.512-6.212 1.584zm-1.133-9.63c.056.24.154.464.297.67a2.23 2.23 0 0 0 1.125.86c.225.078.448.108.668.092.277-.018.521-.082.732-.19a1.56 1.56 0 0 0 .516-.417c.133-.169.224-.362.271-.58a1.554 1.554 0 0 0-.012-.687 1.878 1.878 0 0 0-.3-.668 2.172 2.172 0 0 0-.527-.525 2.386 2.386 0 0 0-.689-.332 2.229 2.229 0 0 0-.796-.088 1.4 1.4 0 0 0-1.056.597 1.563 1.563 0 0 0-.229 1.269zm-1.612.114a3.395 3.395 0 0 1-.054-1.298c.067-.423.209-.804.427-1.141.218-.338.507-.615.868-.83a2.843 2.843 0 0 1 1.262-.378 4.219 4.219 0 0 1 1.485.158c.469.138.895.349 1.28.631a4.042 4.042 0 0 1 1.553 2.379c.114.496.134.959.057 1.387a2.636 2.636 0 0 1-.48 1.133 2.68 2.68 0 0 1-.951.788c-.391.2-.847.316-1.368.35a3.32 3.32 0 0 1-.946-.066 3.826 3.826 0 0 1-.881-.305 4.084 4.084 0 0 1-.785-.504 4.4 4.4 0 0 1-1.156-1.445 3.864 3.864 0 0 1-.31-.859zm.334-5.834l.018-1.646 3.899-2.36v-.016l-3.865-.656.018-1.646 6.322 1.07-.018 1.646-3.907 2.359v.017l3.873.656-.018 1.646-6.322-1.07zM2.02 28.1l.485-1.914 1.894-.464-1.312-1.832.485-1.914 2.49 3.578 2.83 1.211-.404 1.596-2.83-1.211-3.638.95zm7.696-9.937l.081-.137c.069-.116.132-.238.188-.367.057-.13.092-.259.103-.388a.863.863 0 0 0-.051-.383.868.868 0 0 0-.273-.356c-.135-.113-.26-.172-.377-.18a.56.56 0 0 0-.323.077c-.1.059-.19.14-.272.245a3.148 3.148 0 0 0-.225.33l-.081.137 1.23 1.022zm4.57-.857l-1.045 1.763-2.691-.237-.009.015 1.9 1.574-.84 1.416-4.94-4.087 1.254-2.118c.16-.27.337-.495.532-.676.195-.18.405-.305.631-.373.226-.068.463-.07.713-.008.249.063.505.202.768.417.171.14.319.3.443.481.123.181.218.374.282.578a1.928 1.928 0 0 1-.037 1.291l3.038-.036zm-.282-5.52l-.012.013.862 2.079.9-1.032-1.75-1.06zm1.369 3.414l.425 1.186-1.148 1.316-2.513-6.753 1.182-1.355 5.683 3.12-1.154 1.324-.984-.547-1.491 1.709zm6.158-8.788a1.253 1.253 0 0 0-.753-.086 1.748 1.748 0 0 0-.734.33 1.872 1.872 0 0 0-.487.534 1.948 1.948 0 0 0-.25.654 2.151 2.151 0 0 0 .218 1.396c.12.225.263.406.43.544a1.3 1.3 0 0 0 .537.275c.191.045.391.044.6-.004.209-.049.417-.15.623-.305.215-.16.395-.371.54-.63a2.38 2.38 0 0 0 .28-.825l.928 1.771c-.178.239-.34.448-.488.63a3.04 3.04 0 0 1-.531.502 3.162 3.162 0 0 1-1.132.55c-.4.1-.805.116-1.215.045a2.372 2.372 0 0 1-1.128-.503 3.265 3.265 0 0 1-.813-1.033 3.72 3.72 0 0 1-.405-1.261 4.066 4.066 0 0 1 .049-1.37c.1-.474.276-.92.53-1.338a3.61 3.61 0 0 1 .918-1.03c.215-.16.432-.289.652-.384a4.41 4.41 0 0 1 .702-.232l.929 1.77zM26.13 9.32l-1.47.74-1.952-6.108 1.471-.74L26.13 9.32zm-.377-6.587l1.53-.607 3.662 2.712.016-.006-.859-3.825 1.53-.608 1.408 6.256-1.53.607-3.665-2.72-.015.006.862 3.833-1.53.608-1.409-6.256zm14.896.039c-.013.234-.027.46-.045.68a4.58 4.58 0 0 1-.099.655c-.049.216-.116.43-.203.643a3.654 3.654 0 0 1-.346.647 3.435 3.435 0 0 1-1.145 1.118c-.447.26-.934.428-1.461.502a3.4 3.4 0 0 1-1.348-.058 2.527 2.527 0 0 1-1.044-.545 2.519 2.519 0 0 1-.67-.97 3.462 3.462 0 0 1-.222-1.344 4.303 4.303 0 0 1 .276-1.455c.172-.448.41-.843.712-1.185A3.822 3.822 0 0 1 36.14.612c.421-.222.884-.37 1.389-.44.648-.09 1.212-.021 1.691.209.48.23.848.626 1.108 1.19l-1.556.878a1.362 1.362 0 0 0-.5-.667c-.226-.156-.505-.21-.838-.163a1.59 1.59 0 0 0-.712.278 2.027 2.027 0 0 0-.522.54c-.14.211-.246.442-.319.693-.072.25-.111.497-.116.741-.005.25.026.49.092.72.066.232.169.431.308.598.14.167.312.294.516.382.204.087.44.112.706.075a1.68 1.68 0 0 0 .902-.402c.247-.218.389-.517.426-.895l-1.33.186.028-1.31 3.236-.453z" id="j"/><filter x="-50%" y="-50%" width="200%" height="200%" filterUnits="objectBoundingBox" id="i"><feOffset dy="1" in="SourceAlpha" result="shadowOffsetOuter1"/><feGaussianBlur stdDeviation="1" in="shadowOffsetOuter1" result="shadowBlurOuter1"/><feColorMatrix values="0 0 0 0 0.376470588 0 0 0 0 0.419607843 0 0 0 0 0.149019608 0 0 0 1 0" in="shadowBlurOuter1"/></filter></defs><g fill="none" fill-rule="evenodd"><g opacity=".711" transform="translate(2 2)"><use fill="#000" filter="url(#a)" xlink:href="#b"/><use fill="#77BB0C" xlink:href="#b"/></g><g fill="#FFF" transform="translate(2 2)"><use filter="url(#c)" xlink:href="#d"/><use xlink:href="#d"/></g><g fill="#FFF" transform="translate(2 2)"><use filter="url(#e)" xlink:href="#f"/><use xlink:href="#f"/></g><path d="M40.15 65.35c13.918 0 25.2-11.282 25.2-25.2s-11.282-25.2-25.2-25.2-25.2 11.282-25.2 25.2 11.282 25.2 25.2 25.2zm11.722-22.902c-4.391-.51-7.66-5.43-7.66-5.43-5.925 3.075-2.624 11.739-.066 15.065 3.283 4.265.878 11.167.878 11.167s-13.388-1.088-20.222-9.698c-5.128-6.465-3.807-12.575-2.346-16.608 1.758-4.85 4.136-7.51 7.603-10.34 5.148-4.209 14.663-4.74 14.663-4.74.064-.357.329-.772.704-1.203-1.142.038-2.53.13-4.115.335-1.086.206-2.287.327-3.507.69-1.242.266-2.505.698-3.797 1.2-1.293.478-2.56 1.162-3.813 1.88-1.189.825-2.452 1.598-3.45 2.69-1.149.94-1.984 2.157-2.843 3.326-.894 1.144-1.335 2.538-2.002 3.747-.5 1.284-.78 2.608-1.154 3.817-.338 1.22-.333 2.447-.501 3.54-.143 1.101-.256 2.114-.176 3.02.029.903.052 1.688.07 2.334.037 1.298.06 2.038.06 2.038l-.176.02s-.156-.727-.36-2.032c-.095-.66-.21-1.455-.345-2.368-.192-.918-.2-1.965-.116-3.113.093-1.144.005-2.411.267-3.72.297-1.299.485-2.729 1.01-4.106.673-1.32 1.125-2.824 2.056-4.09.894-1.296 1.778-2.646 3.001-3.694 1.124-1.16 2.504-1.965 3.807-2.82 1.36-.734 2.732-1.423 4.108-1.899a19.612 19.612 0 0 1 4.047-1.041c1.293-.283 2.542-.323 3.674-.456 1.929-.09 3.543 0 4.794.135 1.575-1.512 4.065-3.044 4.065-3.044-.51.508-.716 3.277-.716 3.277.51-.92 2.144-1.845 2.144-1.845-.918 2.147 0 6.756 0 6.756 2.658 2.668 5.617 11.883 5.617 11.883l1.124 1.639c1.436 2.055.91 5.278-.505 6.042-5.31 2.873-5.822-2.354-5.822-2.354z" fill-opacity=".88" fill="#FFF" opacity=".8"/><g opacity=".7" transform="translate(2 2)"><use fill="#000" filter="url(#g)" xlink:href="#h"/><use fill="#FFF" xlink:href="#h"/></g><path d="M40.15 71.3C22.946 71.3 9 57.354 9 40.15 9 22.947 22.946 9 40.15 9S71.3 22.947 71.3 40.15c0 17.204-13.946 31.15-31.15 31.15" opacity=".9"/><g transform="translate(2 2)"><use fill="#000" filter="url(#i)" xlink:href="#j"/><use fill="url(#k)" xlink:href="#j"/></g></g></svg>