<svg width="72" height="90" viewBox="0 0 72 90" xmlns="http://www.w3.org/2000/svg" xmlns:xlink="http://www.w3.org/1999/xlink"><title>Pony racing</title><defs><path d="M58.387 33.296H352v25H57.982v-.589a27.195 27.195 0 0 0 3.08-12.61c0-4.227-.96-8.23-2.675-11.8z" id="b"/><filter x="-50%" y="-50%" width="200%" height="200%" filterUnits="objectBoundingBox" id="a"><feOffset dy="2" in="SourceAlpha" result="shadowOffsetOuter1"/><feGaussianBlur stdDeviation="2" in="shadowOffsetOuter1" result="shadowBlurOuter1"/><feColorMatrix values="0 0 0 0 0.278431373 0 0 0 0 0.329411765 0 0 0 0 0.00392156863 0 0 0 1 0" in="shadowBlurOuter1"/></filter><text id="d" font-family="FuturaLT-Bold, Futura LT Book" font-size="4.9" font-weight="bold" fill="#FFF"><tspan x="5.5" y="77.45">&amp; HAVE FUN</tspan></text><filter x="-50%" y="-50%" width="200%" height="200%" filterUnits="objectBoundingBox" id="c"><feOffset dy="1" in="SourceAlpha" result="shadowOffsetOuter1"/><feGaussianBlur stdDeviation="1" in="shadowOffsetOuter1" result="shadowBlurOuter1"/><feColorMatrix values="0 0 0 0 0 0 0 0 0 0 0 0 0 0 0 0 0 0 0.5 0" in="shadowBlurOuter1"/></filter><text id="f" font-family="FuturaLT-Bold, Futura LT Book" font-size="8.4" font-weight="bold" fill="#FFF"><tspan x="5.15" y="71.3">BET ONLINE</tspan></text><filter x="-50%" y="-50%" width="200%" height="200%" filterUnits="objectBoundingBox" id="e"><feOffset dy="1" in="SourceAlpha" result="shadowOffsetOuter1"/><feGaussianBlur stdDeviation="1" in="shadowOffsetOuter1" result="shadowBlurOuter1"/><feColorMatrix values="0 0 0 0 0 0 0 0 0 0 0 0 0 0 0 0 0 0 0.5 0" in="shadowBlurOuter1"/></filter><path d="M31.091 58.404c-15.079 0-27.302-12.226-27.302-27.307 0-15.082 12.223-27.308 27.302-27.308 15.08 0 27.303 12.226 27.303 27.308 0 15.081-12.223 27.307-27.303 27.307m0-55.954C15.273 2.45 2.45 15.276 2.45 31.097c0 15.82 12.823 28.646 28.641 28.646 15.818 0 28.642-12.825 28.642-28.646 0-15.821-12.824-28.647-28.642-28.647" id="h"/><filter x="-50%" y="-50%" width="200%" height="200%" filterUnits="objectBoundingBox" id="g"><feOffset dx="1" dy="1" in="SourceAlpha" result="shadowOffsetOuter1"/><feGaussianBlur stdDeviation="1" in="shadowOffsetOuter1" result="shadowBlurOuter1"/><feColorMatrix values="0 0 0 0 0 0 0 0 0 0 0 0 0 0 0 0 0 0 0.489526721 0" in="shadowBlurOuter1"/></filter><radialGradient cx="-22.411%" cy="-191.956%" fx="-22.411%" fy="-191.956%" r="202.56%" id="k"><stop offset="0%"/><stop stop-color="#FFF" offset="100%"/></radialGradient><text id="j" font-family="FuturaLT-BoldOblique, Futura LT Book" font-size="8.4" font-style="italic" font-weight="bold" text-decoration="line-through"><tspan x="11.55" y="61.339">PONY RACING</tspan></text><filter x="-50%" y="-50%" width="200%" height="200%" filterUnits="objectBoundingBox" id="i"><feOffset dy="1" in="SourceAlpha" result="shadowOffsetOuter1"/><feGaussianBlur stdDeviation="1" in="shadowOffsetOuter1" result="shadowBlurOuter1"/><feColorMatrix values="0 0 0 0 0.376470588 0 0 0 0 0.419607843 0 0 0 0 0.149019608 0 0 0 1 0" in="shadowBlurOuter1"/></filter></defs><g fill="none" fill-rule="evenodd"><g opacity=".711" transform="translate(8 -4)"><use fill="#000" filter="url(#a)" xlink:href="#b"/><use fill="#77BB0C" xlink:href="#b"/></g><g fill="#FFF" transform="translate(8.667 10)"><use filter="url(#c)" xlink:href="#d"/><use xlink:href="#d"/></g><g fill="#FFF" transform="translate(8.667 10)"><use filter="url(#e)" xlink:href="#f"/><use xlink:href="#f"/></g><path d="M39.817 66.35c13.918 0 25.2-11.282 25.2-25.2s-11.282-25.2-25.2-25.2c-13.917 0-25.2 11.282-25.2 25.2s11.283 25.2 25.2 25.2zM51.54 43.448c-4.39-.51-7.659-5.43-7.659-5.43-5.925 3.075-2.625 11.739-.067 15.065 3.283 4.265.879 11.167.879 11.167s-13.389-1.088-20.223-9.698c-5.128-6.465-3.807-12.575-2.345-16.608 1.757-4.85 4.135-7.51 7.603-10.34 5.148-4.209 14.663-4.74 14.663-4.74.063-.357.328-.772.703-1.203a43.29 43.29 0 0 0-4.115.335c-1.086.206-2.286.327-3.506.69-1.243.266-2.506.698-3.798 1.2-1.293.478-2.559 1.162-3.813 1.88-1.189.825-2.452 1.598-3.45 2.69-1.148.94-1.984 2.157-2.843 3.326-.894 1.144-1.335 2.538-2.002 3.747-.5 1.284-.779 2.608-1.154 3.817-.338 1.22-.332 2.447-.5 3.54-.144 1.101-.256 2.114-.176 3.02.028.903.052 1.688.07 2.334.036 1.298.059 2.038.059 2.038l-.176.02s-.156-.727-.36-2.032c-.095-.66-.21-1.455-.344-2.368-.193-.918-.201-1.965-.117-3.113.093-1.144.006-2.411.267-3.72.297-1.299.486-2.729 1.01-4.106.673-1.32 1.125-2.824 2.056-4.09.894-1.296 1.778-2.646 3.001-3.694 1.125-1.16 2.505-1.965 3.807-2.82 1.36-.734 2.732-1.423 4.108-1.899a19.612 19.612 0 0 1 4.047-1.041c1.293-.283 2.543-.323 3.674-.456 1.929-.09 3.543 0 4.794.135 1.575-1.512 4.066-3.044 4.066-3.044-.511.508-.716 3.277-.716 3.277.51-.92 2.143-1.845 2.143-1.845-.918 2.147 0 6.756 0 6.756 2.658 2.668 5.617 11.883 5.617 11.883l1.124 1.639c1.437 2.055.91 5.278-.505 6.042-5.31 2.873-5.822-2.354-5.822-2.354z" fill-opacity=".88" fill="#FFF" opacity=".8"/><g opacity=".7" transform="translate(8.667 10)"><use fill="#000" filter="url(#g)" xlink:href="#h"/><use fill="#FFF" xlink:href="#h"/></g><path d="M39.817 72.3c-17.204 0-31.15-13.946-31.15-31.15C8.667 23.947 22.613 10 39.817 10s31.15 13.947 31.15 31.15c0 17.204-13.946 31.15-31.15 31.15" opacity=".9"/><g transform="translate(8.667 10)"><use fill="#FFF" filter="url(#i)" xlink:href="#j"/><use fill="url(#k)" xlink:href="#j"/><use fill="#FFF" xlink:href="#j"/></g></g></svg>